<svg xmlns="http://www.w3.org/2000/svg" viewBox="0 0 860 520" font-family="'Segoe UI',Helvetica,Arial,sans-serif">
  <rect x="1" y="1" width="858" height="518" rx="14" fill="#ffffff" stroke="#e2e8f0" stroke-width="2"/>
  <text x="430" y="40" text-anchor="middle" font-size="22" font-weight="700" fill="#1f2a44">하나의 fitted GLM &#8594; 세 가지 의사결정 관점</text>

  <!-- crown: efficiency identity -->
  <rect x="118" y="66" width="624" height="48" rx="10" fill="#eef0fb" stroke="#4c5bd4" stroke-width="1.6"/>
  <text x="430" y="89" text-anchor="middle" font-size="15.5" font-weight="700" fill="#2f3a66">효율성 항등식</text>
  <text x="430" y="107" text-anchor="middle" font-size="15" fill="#2f3a66">&#931; &#916;_path  =  &#931; &#966;_c  =  E_u[&#916;_u]      ·      상대오차 0.00%</text>

  <!-- connectors crown -> three views -->
  <line x1="175" y1="114" x2="175" y2="140" stroke="#c2b27a" stroke-width="1.5"/>
  <line x1="430" y1="114" x2="430" y2="140" stroke="#c2b27a" stroke-width="1.5"/>
  <line x1="685" y1="114" x2="685" y2="140" stroke="#c2b27a" stroke-width="1.5"/>

  <!-- three view boxes -->
  <g>
    <rect x="70" y="140" width="210" height="82" rx="9" fill="#ffffff" stroke="#2ca58d" stroke-width="2"/>
    <text x="175" y="168" text-anchor="middle" font-size="15.5" font-weight="700" fill="#1f2a44">채널 예산</text>
    <text x="175" y="190" text-anchor="middle" font-size="14" fill="#2ca58d">&#931; &#966;_c</text>
    <text x="175" y="210" text-anchor="middle" font-size="11.5" fill="#6b7280">어디에 돈을 쓸까</text>
  </g>
  <g>
    <rect x="325" y="140" width="210" height="82" rx="9" fill="#ffffff" stroke="#d9952b" stroke-width="2"/>
    <text x="430" y="168" text-anchor="middle" font-size="15.5" font-weight="700" fill="#1f2a44">여정 설계</text>
    <text x="430" y="190" text-anchor="middle" font-size="14" fill="#b9791b">&#931; &#916;_path</text>
    <text x="430" y="210" text-anchor="middle" font-size="11.5" fill="#6b7280">어떤 여정이 작동하나</text>
  </g>
  <g>
    <rect x="580" y="140" width="210" height="82" rx="9" fill="#ffffff" stroke="#4c5bd4" stroke-width="2"/>
    <text x="685" y="168" text-anchor="middle" font-size="15.5" font-weight="700" fill="#1f2a44">모집단 효과</text>
    <text x="685" y="190" text-anchor="middle" font-size="14" fill="#4c5bd4">E_u[&#916;_u]</text>
    <text x="685" y="210" text-anchor="middle" font-size="11.5" fill="#6b7280">전향적 인과 · A/B</text>
  </g>

  <!-- credit -> views manifold -->
  <line x1="430" y1="300" x2="430" y2="262" stroke="#6b7280" stroke-width="2.4"/>
  <line x1="175" y1="262" x2="685" y2="262" stroke="#6b7280" stroke-width="2.4"/>
  <line x1="175" y1="262" x2="175" y2="226" stroke="#6b7280" stroke-width="2.4"/>
  <polygon points="169,234 181,234 175,224" fill="#6b7280"/>
  <line x1="430" y1="262" x2="430" y2="226" stroke="#6b7280" stroke-width="2.4"/>
  <polygon points="424,234 436,234 430,224" fill="#6b7280"/>
  <line x1="685" y1="262" x2="685" y2="226" stroke="#6b7280" stroke-width="2.4"/>
  <polygon points="679,234 691,234 685,224" fill="#6b7280"/>

  <!-- credit box (layer 2) -->
  <rect x="252" y="300" width="356" height="60" rx="10" fill="#2ca58d" stroke="#1f8068" stroke-width="1.5"/>
  <text x="430" y="326" text-anchor="middle" font-size="15.5" font-weight="700" fill="#ffffff">&#9313;  Incremental · Shapley 채널 기여도</text>
  <text x="430" y="347" text-anchor="middle" font-size="12.5" fill="#e8fff8">BackElim · Shapley   ·   순위 합의 &#961; = 0.929</text>

  <!-- backbone -> credit -->
  <line x1="430" y1="418" x2="430" y2="362" stroke="#6b7280" stroke-width="2.6"/>
  <polygon points="423,371 437,371 430,360" fill="#6b7280"/>

  <!-- backbone box (layer 1) -->
  <rect x="110" y="418" width="640" height="66" rx="10" fill="#3a4a7a" stroke="#28365c" stroke-width="1.5"/>
  <text x="430" y="446" text-anchor="middle" font-size="16" font-weight="700" fill="#ffffff">&#9312;  Poisson Survival 백본 — 단일 fitted GLM</text>
  <text x="430" y="467" text-anchor="middle" font-size="12.5" fill="#cdd6ee">채널별 감쇠 곡선 학습 · 우측 절단(censoring) 처리 · AIC로 ground truth 없이 스펙 선택</text>
</svg>
